<mxfile host="app.diagrams.net" modified="2023-09-28T11:39:57.237Z" agent="Mozilla/5.0 (X11; Ubuntu; Linux x86_64; rv:109.0) Gecko/20100101 Firefox/117.0" etag="MBSRkHb1XE3OwnouCn1Q" version="21.8.1" type="github">
  <diagram name="Page-1" id="2c0d36ab-eaac-3732-788b-9136903baeff">
    <mxGraphModel dx="3117.5" dy="795" grid="1" gridSize="10" guides="1" tooltips="1" connect="1" arrows="1" fold="1" page="1" pageScale="1.5" pageWidth="1169" pageHeight="827" background="none" math="0" shadow="0">
      <root>
        <mxCell id="0" />
        <mxCell id="1" parent="0" />
        <mxCell id="123" value="" style="fillColor=#FF9933;strokeColor=none;opacity=70;" parent="1" vertex="1">
          <mxGeometry x="97" y="80.00000000000003" width="210" height="99.99999999999994" as="geometry" />
        </mxCell>
        <mxCell id="122" value="" style="fillColor=#10739E;strokeColor=none;opacity=30;" parent="1" vertex="1">
          <mxGeometry x="80" y="325.5" width="1200" height="100" as="geometry" />
        </mxCell>
        <mxCell id="Yn6bxcLCCpbbk8Qmd1Es-140" style="edgeStyle=orthogonalEdgeStyle;rounded=0;orthogonalLoop=1;jettySize=auto;html=1;strokeWidth=2;" edge="1" parent="1" source="2" target="10">
          <mxGeometry relative="1" as="geometry">
            <Array as="points">
              <mxPoint x="202" y="270" />
              <mxPoint x="884" y="270" />
            </Array>
          </mxGeometry>
        </mxCell>
        <mxCell id="2" value="Path: &quot;/&quot;&#xa;View: Login" style="rounded=1;fillColor=#23445D;gradientColor=none;strokeColor=none;fontColor=#FFFFFF;fontStyle=1;fontFamily=Tahoma;fontSize=14" parent="1" vertex="1">
          <mxGeometry x="107" y="90" width="190" height="80" as="geometry" />
        </mxCell>
        <mxCell id="4" value="Scope: Admin" style="rounded=1;fillColor=#f8cecc;strokeColor=#b85450;fontStyle=1;fontFamily=Tahoma;fontSize=14" parent="1" vertex="1">
          <mxGeometry x="1069.9999999999998" y="335.5" width="190" height="80" as="geometry" />
        </mxCell>
        <mxCell id="9" value="" style="edgeStyle=elbowEdgeStyle;elbow=vertical;strokeWidth=2;rounded=0" parent="1" source="2" target="4" edge="1">
          <mxGeometry x="337" y="215.5" width="100" height="100" as="geometry">
            <mxPoint x="337" y="315.5" as="sourcePoint" />
            <mxPoint x="437" y="215.5" as="targetPoint" />
            <Array as="points">
              <mxPoint x="830" y="270" />
            </Array>
          </mxGeometry>
        </mxCell>
        <mxCell id="10" value="Scope: Award Committee" style="rounded=1;fillColor=#f8cecc;strokeColor=#b85450;fontStyle=1;fontFamily=Tahoma;fontSize=14" parent="1" vertex="1">
          <mxGeometry x="780" y="335.5" width="207" height="80" as="geometry" />
        </mxCell>
        <mxCell id="12" value="Scope: Reviewer" style="rounded=1;fillColor=#f8cecc;strokeColor=#b85450;fontStyle=1;fontFamily=Tahoma;fontSize=14" parent="1" vertex="1">
          <mxGeometry x="401.9999999999999" y="335.5" width="190" height="80" as="geometry" />
        </mxCell>
        <mxCell id="13" value="Scope: Applicant" style="rounded=1;fillColor=#f8cecc;strokeColor=#b85450;fontStyle=1;fontFamily=Tahoma;fontSize=14" parent="1" vertex="1">
          <mxGeometry x="107" y="335.5" width="190" height="80" as="geometry" />
        </mxCell>
        <mxCell id="Yn6bxcLCCpbbk8Qmd1Es-148" style="edgeStyle=orthogonalEdgeStyle;rounded=0;orthogonalLoop=1;jettySize=auto;html=1;strokeWidth=2;" edge="1" parent="1" source="14" target="28">
          <mxGeometry relative="1" as="geometry" />
        </mxCell>
        <mxCell id="Yn6bxcLCCpbbk8Qmd1Es-156" style="edgeStyle=orthogonalEdgeStyle;rounded=0;orthogonalLoop=1;jettySize=auto;html=1;" edge="1" parent="1" source="14" target="15">
          <mxGeometry relative="1" as="geometry">
            <Array as="points">
              <mxPoint x="330" y="540" />
            </Array>
          </mxGeometry>
        </mxCell>
        <mxCell id="14" value="Path: /viewSubmission&#xa;View: Submissions List&#xa;" style="rounded=1;fillColor=#23445D;gradientColor=none;strokeColor=none;fontColor=#FFFFFF;fontStyle=1;fontFamily=Tahoma;fontSize=14" parent="1" vertex="1">
          <mxGeometry x="105.5" y="500" width="193" height="60" as="geometry" />
        </mxCell>
        <mxCell id="Yn6bxcLCCpbbk8Qmd1Es-155" style="edgeStyle=orthogonalEdgeStyle;rounded=0;orthogonalLoop=1;jettySize=auto;html=1;" edge="1" parent="1" source="15" target="26">
          <mxGeometry relative="1" as="geometry" />
        </mxCell>
        <mxCell id="15" value="Path: /viewSubmissionDetail&#xa;View: SubmissionDetails" style="rounded=1;fillColor=#23445D;gradientColor=none;strokeColor=none;fontColor=#FFFFFF;fontStyle=1;fontFamily=Tahoma;fontSize=14" parent="1" vertex="1">
          <mxGeometry x="240" y="635.5" width="240" height="60" as="geometry" />
        </mxCell>
        <mxCell id="Yn6bxcLCCpbbk8Qmd1Es-123" style="edgeStyle=orthogonalEdgeStyle;rounded=0;orthogonalLoop=1;jettySize=auto;html=1;entryX=0.5;entryY=0;entryDx=0;entryDy=0;exitX=0.5;exitY=0;exitDx=0;exitDy=0;" edge="1" parent="1" source="16" target="2">
          <mxGeometry relative="1" as="geometry">
            <Array as="points">
              <mxPoint x="520" y="100" />
              <mxPoint x="520" y="60" />
              <mxPoint x="202" y="60" />
            </Array>
          </mxGeometry>
        </mxCell>
        <mxCell id="Yn6bxcLCCpbbk8Qmd1Es-263" style="edgeStyle=orthogonalEdgeStyle;rounded=0;orthogonalLoop=1;jettySize=auto;html=1;dashed=1;" edge="1" parent="1" source="16" target="Yn6bxcLCCpbbk8Qmd1Es-264">
          <mxGeometry relative="1" as="geometry">
            <mxPoint x="710" y="130" as="targetPoint" />
          </mxGeometry>
        </mxCell>
        <mxCell id="16" value="Path: /signup&#xa;View: Applicant Sign Up" style="rounded=1;fillColor=#23445D;gradientColor=none;strokeColor=none;fontColor=#FFFFFF;fontStyle=1;fontFamily=Tahoma;fontSize=14" parent="1" vertex="1">
          <mxGeometry x="402" y="100" width="240" height="60" as="geometry" />
        </mxCell>
        <mxCell id="17" value="Path: /forgot&#xa;View: Forgot Password" style="rounded=1;fillColor=#23445D;gradientColor=none;strokeColor=none;fontColor=#FFFFFF;fontStyle=1;fontFamily=Tahoma;fontSize=14" parent="1" vertex="1">
          <mxGeometry x="402" y="180" width="240" height="60" as="geometry" />
        </mxCell>
        <mxCell id="Yn6bxcLCCpbbk8Qmd1Es-151" style="edgeStyle=orthogonalEdgeStyle;rounded=0;orthogonalLoop=1;jettySize=auto;html=1;" edge="1" parent="1" source="Yn6bxcLCCpbbk8Qmd1Es-152" target="15">
          <mxGeometry relative="1" as="geometry">
            <Array as="points">
              <mxPoint x="497" y="598" />
              <mxPoint x="360" y="598" />
            </Array>
          </mxGeometry>
        </mxCell>
        <mxCell id="Yn6bxcLCCpbbk8Qmd1Es-159" style="edgeStyle=orthogonalEdgeStyle;rounded=0;orthogonalLoop=1;jettySize=auto;html=1;exitX=0.5;exitY=1;exitDx=0;exitDy=0;entryX=1;entryY=0.5;entryDx=0;entryDy=0;dashed=1;" edge="1" parent="1" source="26" target="Yn6bxcLCCpbbk8Qmd1Es-152">
          <mxGeometry relative="1" as="geometry">
            <mxPoint x="625" y="820" as="targetPoint" />
            <mxPoint x="600" y="800" as="sourcePoint" />
            <Array as="points">
              <mxPoint x="615" y="716" />
              <mxPoint x="740" y="716" />
              <mxPoint x="740" y="530" />
            </Array>
          </mxGeometry>
        </mxCell>
        <mxCell id="26" value="Path: /assigngrade.php&#xa;View: Assign Score Form" style="rounded=1;fillColor=#23445D;gradientColor=none;strokeColor=none;fontColor=#FFFFFF;fontStyle=1;fontFamily=Tahoma;fontSize=14" parent="1" vertex="1">
          <mxGeometry x="520" y="635.5" width="200" height="60" as="geometry" />
        </mxCell>
        <mxCell id="27" value="DownloadApplciation" style="rounded=1;fillColor=#23445D;gradientColor=none;strokeColor=none;fontColor=#FFFFFF;fontStyle=1;fontFamily=Tahoma;fontSize=14" parent="1" vertex="1">
          <mxGeometry x="97" y="770" width="210" height="70" as="geometry" />
        </mxCell>
        <mxCell id="Yn6bxcLCCpbbk8Qmd1Es-150" style="edgeStyle=orthogonalEdgeStyle;rounded=0;orthogonalLoop=1;jettySize=auto;html=1;" edge="1" parent="1" source="14" target="27">
          <mxGeometry relative="1" as="geometry" />
        </mxCell>
        <mxCell id="Yn6bxcLCCpbbk8Qmd1Es-161" style="edgeStyle=orthogonalEdgeStyle;rounded=0;orthogonalLoop=1;jettySize=auto;html=1;dashed=1;" edge="1" parent="1" source="28" target="27">
          <mxGeometry relative="1" as="geometry" />
        </mxCell>
        <mxCell id="28" value="Path: /submitAwardAppplication&#xa;Award Application Form" style="rounded=1;fillColor=#23445D;gradientColor=none;strokeColor=none;fontColor=#FFFFFF;fontStyle=1;fontFamily=Tahoma;fontSize=14" parent="1" vertex="1">
          <mxGeometry x="-100" y="635.5" width="283" height="60" as="geometry" />
        </mxCell>
        <mxCell id="41" value="Active Awards List" style="rounded=1;fillColor=#dae8fc;strokeColor=#6c8ebf;fontStyle=1;fontFamily=Tahoma;fontSize=14" parent="1" vertex="1">
          <mxGeometry x="758.5" y="455.5" width="161.5" height="60" as="geometry" />
        </mxCell>
        <mxCell id="42" value="Create Awards" style="rounded=1;fillColor=#dae8fc;strokeColor=#6c8ebf;fontStyle=1;fontFamily=Tahoma;fontSize=14" parent="1" vertex="1">
          <mxGeometry x="790" y="560" width="130" height="60" as="geometry" />
        </mxCell>
        <mxCell id="43" value="Add reviewers" style="rounded=1;fillColor=#dae8fc;strokeColor=#6c8ebf;fontStyle=1;fontFamily=Tahoma;fontSize=14" parent="1" vertex="1">
          <mxGeometry x="787.25" y="655.5" width="130" height="60" as="geometry" />
        </mxCell>
        <mxCell id="Yn6bxcLCCpbbk8Qmd1Es-244" style="edgeStyle=orthogonalEdgeStyle;rounded=0;orthogonalLoop=1;jettySize=auto;html=1;" edge="1" parent="1" source="47" target="Yn6bxcLCCpbbk8Qmd1Es-243">
          <mxGeometry relative="1" as="geometry" />
        </mxCell>
        <mxCell id="47" value="List Active Committees" style="rounded=1;fillColor=#dae8fc;strokeColor=#6c8ebf;fontStyle=1;fontFamily=Tahoma;fontSize=14" parent="1" vertex="1">
          <mxGeometry x="1160" y="455.5" width="210" height="60" as="geometry" />
        </mxCell>
        <mxCell id="59" value="" style="edgeStyle=elbowEdgeStyle;elbow=vertical;strokeWidth=2;rounded=0;entryX=0.5;entryY=0;entryDx=0;entryDy=0;" parent="1" source="2" target="12" edge="1">
          <mxGeometry x="347" y="225.5" width="100" height="100" as="geometry">
            <mxPoint x="861.9999999999999" y="275.5" as="sourcePoint" />
            <mxPoint x="1466.9999999999998" y="345.5" as="targetPoint" />
            <Array as="points">
              <mxPoint x="420" y="270" />
            </Array>
          </mxGeometry>
        </mxCell>
        <mxCell id="61" value="" style="edgeStyle=elbowEdgeStyle;elbow=vertical;strokeWidth=2;rounded=0" parent="1" source="2" target="13" edge="1">
          <mxGeometry x="-23" y="135.5" width="100" height="100" as="geometry">
            <mxPoint x="-23" y="235.5" as="sourcePoint" />
            <mxPoint x="77" y="135.5" as="targetPoint" />
          </mxGeometry>
        </mxCell>
        <mxCell id="62" value="" style="edgeStyle=elbowEdgeStyle;elbow=vertical;strokeWidth=2;rounded=0" parent="1" source="13" target="14" edge="1">
          <mxGeometry x="-23" y="135.5" width="100" height="100" as="geometry">
            <mxPoint x="-23" y="235.5" as="sourcePoint" />
            <mxPoint x="77" y="135.5" as="targetPoint" />
          </mxGeometry>
        </mxCell>
        <mxCell id="64" value="" style="edgeStyle=elbowEdgeStyle;elbow=horizontal;strokeWidth=2;rounded=0;exitX=1;exitY=0.5;exitDx=0;exitDy=0;" parent="1" source="2" target="16" edge="1">
          <mxGeometry x="-23" y="135.5" width="100" height="100" as="geometry">
            <mxPoint x="-23" y="235.5" as="sourcePoint" />
            <mxPoint x="77" y="135.5" as="targetPoint" />
            <Array as="points">
              <mxPoint x="320" y="130" />
            </Array>
          </mxGeometry>
        </mxCell>
        <mxCell id="65" value="" style="edgeStyle=elbowEdgeStyle;elbow=horizontal;strokeWidth=2;rounded=0;exitX=1;exitY=0.5;exitDx=0;exitDy=0;" parent="1" source="2" target="17" edge="1">
          <mxGeometry x="-23" y="135.5" width="100" height="100" as="geometry">
            <mxPoint x="-23" y="235.5" as="sourcePoint" />
            <mxPoint x="77" y="135.5" as="targetPoint" />
            <Array as="points">
              <mxPoint x="340" y="170" />
            </Array>
          </mxGeometry>
        </mxCell>
        <mxCell id="82" value="" style="edgeStyle=elbowEdgeStyle;elbow=horizontal;strokeWidth=2;rounded=0" parent="1" source="10" target="42" edge="1">
          <mxGeometry x="-23" y="135.5" width="100" height="100" as="geometry">
            <mxPoint x="1010" y="530" as="sourcePoint" />
            <mxPoint x="77" y="135.5" as="targetPoint" />
            <Array as="points">
              <mxPoint x="957" y="535.5" />
            </Array>
          </mxGeometry>
        </mxCell>
        <mxCell id="83" value="" style="edgeStyle=elbowEdgeStyle;elbow=horizontal;strokeWidth=2;rounded=0" parent="1" source="10" target="43" edge="1">
          <mxGeometry x="-23" y="135.5" width="100" height="100" as="geometry">
            <mxPoint x="1010" y="510" as="sourcePoint" />
            <mxPoint x="77" y="135.5" as="targetPoint" />
            <Array as="points">
              <mxPoint x="957" y="585.5" />
            </Array>
          </mxGeometry>
        </mxCell>
        <mxCell id="86" value="" style="edgeStyle=elbowEdgeStyle;elbow=horizontal;strokeWidth=2;rounded=0;entryX=0;entryY=0.5;entryDx=0;entryDy=0;" parent="1" source="4" target="47" edge="1">
          <mxGeometry x="-23" y="135.5" width="100" height="100" as="geometry">
            <mxPoint x="1100" y="417" as="sourcePoint" />
            <mxPoint x="57" y="135.5" as="targetPoint" />
            <Array as="points">
              <mxPoint x="1100" y="450" />
            </Array>
          </mxGeometry>
        </mxCell>
        <mxCell id="100" value="" style="edgeStyle=elbowEdgeStyle;elbow=vertical;strokeWidth=2;rounded=0" parent="1" source="12" target="Yn6bxcLCCpbbk8Qmd1Es-152" edge="1">
          <mxGeometry x="-23" y="135.5" width="100" height="100" as="geometry">
            <mxPoint x="-23" y="235.5" as="sourcePoint" />
            <mxPoint x="715" y="455.5" as="targetPoint" />
          </mxGeometry>
        </mxCell>
        <mxCell id="Yn6bxcLCCpbbk8Qmd1Es-139" style="edgeStyle=orthogonalEdgeStyle;rounded=0;orthogonalLoop=1;jettySize=auto;html=1;entryX=0.5;entryY=0;entryDx=0;entryDy=0;exitX=0.5;exitY=0;exitDx=0;exitDy=0;" edge="1" parent="1" source="Yn6bxcLCCpbbk8Qmd1Es-124" target="2">
          <mxGeometry relative="1" as="geometry">
            <Array as="points">
              <mxPoint x="910" y="60" />
              <mxPoint x="202" y="60" />
            </Array>
          </mxGeometry>
        </mxCell>
        <mxCell id="Yn6bxcLCCpbbk8Qmd1Es-124" value="Path: /reset?token=?&#xa;View: Reset Password" style="rounded=1;fillColor=#23445D;gradientColor=none;strokeColor=none;fontColor=#FFFFFF;fontStyle=1;fontFamily=Tahoma;fontSize=14" vertex="1" parent="1">
          <mxGeometry x="790" y="180" width="240" height="60" as="geometry" />
        </mxCell>
        <mxCell id="Yn6bxcLCCpbbk8Qmd1Es-134" value="" style="edgeStyle=orthogonalEdgeStyle;rounded=0;orthogonalLoop=1;jettySize=auto;html=1;dashed=1;dashPattern=8 8;entryX=0;entryY=0.5;entryDx=0;entryDy=0;" edge="1" parent="1" source="17" target="Yn6bxcLCCpbbk8Qmd1Es-124">
          <mxGeometry relative="1" as="geometry">
            <mxPoint x="580" y="210" as="sourcePoint" />
            <mxPoint x="790" y="210" as="targetPoint" />
          </mxGeometry>
        </mxCell>
        <mxCell id="Yn6bxcLCCpbbk8Qmd1Es-137" value="Email" style="edgeLabel;html=1;align=center;verticalAlign=middle;resizable=0;points=[];" vertex="1" connectable="0" parent="Yn6bxcLCCpbbk8Qmd1Es-134">
          <mxGeometry x="-0.1445" relative="1" as="geometry">
            <mxPoint x="15" as="offset" />
          </mxGeometry>
        </mxCell>
        <mxCell id="Yn6bxcLCCpbbk8Qmd1Es-146" style="edgeStyle=orthogonalEdgeStyle;rounded=0;orthogonalLoop=1;jettySize=auto;html=1;exitX=0.5;exitY=1;exitDx=0;exitDy=0;" edge="1" parent="1" source="28" target="28">
          <mxGeometry relative="1" as="geometry" />
        </mxCell>
        <mxCell id="Yn6bxcLCCpbbk8Qmd1Es-154" style="edgeStyle=orthogonalEdgeStyle;rounded=0;orthogonalLoop=1;jettySize=auto;html=1;" edge="1" parent="1" source="Yn6bxcLCCpbbk8Qmd1Es-152" target="26">
          <mxGeometry relative="1" as="geometry" />
        </mxCell>
        <mxCell id="Yn6bxcLCCpbbk8Qmd1Es-152" value="Path: /viewawardsubmissionreviewer&#xa;View: List Assigned Submissions" style="rounded=1;fillColor=#23445D;gradientColor=none;strokeColor=none;fontColor=#FFFFFF;fontStyle=1;fontFamily=Tahoma;fontSize=14" vertex="1" parent="1">
          <mxGeometry x="347" y="500" width="300" height="60" as="geometry" />
        </mxCell>
        <mxCell id="Yn6bxcLCCpbbk8Qmd1Es-158" value="" style="edgeStyle=elbowEdgeStyle;elbow=horizontal;strokeWidth=2;rounded=0;entryX=1;entryY=0.5;entryDx=0;entryDy=0;" edge="1" parent="1" source="10" target="41">
          <mxGeometry x="-23" y="135.5" width="100" height="100" as="geometry">
            <mxPoint x="990" y="470" as="sourcePoint" />
            <mxPoint x="983" y="810" as="targetPoint" />
            <Array as="points">
              <mxPoint x="957" y="480" />
            </Array>
          </mxGeometry>
        </mxCell>
        <mxCell id="Yn6bxcLCCpbbk8Qmd1Es-239" value="Assign reviewers to Awards" style="rounded=1;fillColor=#dae8fc;strokeColor=#6c8ebf;fontStyle=1;fontFamily=Tahoma;fontSize=14" vertex="1" parent="1">
          <mxGeometry x="690" y="755.5" width="230" height="60" as="geometry" />
        </mxCell>
        <mxCell id="Yn6bxcLCCpbbk8Qmd1Es-240" value="" style="edgeStyle=elbowEdgeStyle;elbow=horizontal;strokeWidth=2;rounded=0;entryX=1;entryY=0.5;entryDx=0;entryDy=0;" edge="1" parent="1" source="10" target="Yn6bxcLCCpbbk8Qmd1Es-239">
          <mxGeometry x="-23" y="135.5" width="100" height="100" as="geometry">
            <mxPoint x="1010" y="490" as="sourcePoint" />
            <mxPoint x="920" y="696" as="targetPoint" />
            <Array as="points">
              <mxPoint x="957" y="600" />
            </Array>
          </mxGeometry>
        </mxCell>
        <mxCell id="Yn6bxcLCCpbbk8Qmd1Es-243" value="Add New Committee" style="rounded=1;fillColor=#dae8fc;strokeColor=#6c8ebf;fontStyle=1;fontFamily=Tahoma;fontSize=14" vertex="1" parent="1">
          <mxGeometry x="1160" y="560" width="210" height="60" as="geometry" />
        </mxCell>
        <mxCell id="Yn6bxcLCCpbbk8Qmd1Es-248" value="&lt;h1&gt;Legend&lt;br&gt;&lt;/h1&gt;&lt;p&gt;Dark Blue: Existing Page&lt;br&gt;&lt;/p&gt;&lt;p&gt;Light Blue: New Page&lt;br&gt;&lt;br&gt;&lt;br&gt;&lt;/p&gt;" style="text;html=1;strokeColor=default;fillColor=default;spacing=5;spacingTop=-20;whiteSpace=wrap;overflow=hidden;rounded=0;strokeWidth=2;perimeterSpacing=1;fillStyle=solid;" vertex="1" parent="1">
          <mxGeometry x="1080" y="40" width="190" height="120" as="geometry" />
        </mxCell>
        <mxCell id="Yn6bxcLCCpbbk8Qmd1Es-264" value="&lt;div&gt;Verification Email&lt;/div&gt;" style="text;html=1;align=center;verticalAlign=middle;resizable=0;points=[];autosize=1;strokeColor=none;fillColor=none;rounded=0;glass=0;" vertex="1" parent="1">
          <mxGeometry x="680" y="115" width="120" height="30" as="geometry" />
        </mxCell>
      </root>
    </mxGraphModel>
  </diagram>
</mxfile>
